<?xml version="1.0" encoding="UTF-8" standalone="no"?>
<svg width="59px" height="50px" viewBox="0 0 59 50" version="1.1" xmlns="http://www.w3.org/2000/svg" xmlns:xlink="http://www.w3.org/1999/xlink">
    <!-- Generator: Sketch 3.7.2 (28276) - http://www.bohemiancoding.com/sketch -->
    <title>Page 1</title>
    <desc>Created with Sketch.</desc>
    <defs>
        <polygon id="path-1" points="0 0.192708674 0 13.6734779 6.71529503 13.6734779 6.71529503 0.192708674 3.47230898e-20 0.192708674"></polygon>
        <polygon id="path-3" points="0.00051242236 6.71191554 35.8687966 6.71191554 35.8687966 0.0195558636 0.00051242236 0.0195558636"></polygon>
    </defs>
    <g id="Loader" stroke="none" stroke-width="1" fill="none" fill-rule="evenodd">
        <g id="OuterSep" transform="translate(-3.000000, -9.000000)">
            <g id="Page-1" transform="translate(3.000000, 9.000000)">
                <path d="M13.6467042,0 C10.0302834,0.266666667 7.58346661,4.30384615 6.6892896,7.92051282 C11.4894061,5.11923077 10.9974806,1.60384615 13.6467042,0" id="Fill-1" fill="#FFFFFF"></path>
                <path d="M53.0747865,31.8062821 C53.6051436,29.2498718 52.468847,25.9844872 52.0845303,23.4088462 C50.8713703,26.9024359 51.4401592,33.4742308 50.0271545,36.2575641 C53.8382958,33.180641 57.8556871,33.0973077 58.8523486,24.0421795 C56.7860054,28.5626923 54.9643439,30.2062821 53.0747865,31.8062821" id="Fill-3" fill="#FFFFFF"></path>
                <path d="M52.239538,7.92051282 C51.345361,4.30384615 48.8985443,0.266666667 45.2821234,0 C47.931347,1.60384615 47.4394216,5.11923077 52.239538,7.92051282" id="Fill-5" fill="#FFFFFF"></path>
                <path d="M10.4024301,5.79551282 C8.73961957,8.14038462 6.41065994,8.25192308 5.42552795,10.8724359 C6.78600932,6.99935897 5.72401398,5.07628205 7.61357143,3.39679487 C4.30076087,3.64038462 3.83701863,7.62628205 4.20852484,14.4570513 C6.06861801,11.1826923 9.75934006,10.2878205 10.4024301,5.79551282" id="Fill-7" fill="#FFFFFF"></path>
                <g id="Group-11" transform="translate(51.242236, 15.598445)" fill="#FFFFFF">
                    <path d="M0.971424689,1.42347791 C0.971424689,7.38117021 2.94681289,8.71193944 2.94681289,13.6734779 C5.45512034,10.6773241 9.21630047,6.23629842 7.02825699,0.192708674 C6.23656444,5.69270867 5.29883152,6.01706765 4.20480978,9.06706765 C3.8384278,5.7657856 2.19611413,3.20552919 0.971424689,1.42347791" id="Fill-9"></path>
                </g>
                <path d="M47.6031405,38.6821795 L47.3084977,38.9757692 C49.2467352,36.8347436 50.0832648,32.0321795 50.3676592,29.6783333 C46.8716576,34.0757692 46.6461918,39.1424359 44.5811297,40.9539744 C50.5175427,40.0026923 55.6930085,37.7232051 56.5718129,32.3360256 C52.7299262,37.2732051 50.6033734,37.0014103 47.6031405,38.6821795" id="Fill-12" fill="#FFFFFF"></path>
                <path d="M53.5034278,10.8725641 C52.5182958,8.25205128 50.1893362,8.14051282 48.5265256,5.79564103 C49.1696157,10.2879487 52.8603377,11.1828205 54.7204309,14.4571795 C55.0919371,7.62641026 54.6281949,3.64051282 51.3153843,3.39692308 C53.2036607,5.07641026 52.1416654,6.99948718 53.5034278,10.8725641" id="Fill-14" fill="#FFFFFF"></path>
                <path d="M55.3153533,17.3770513 C54.1790567,15.1001282 53.8024262,14.4667949 52.0922166,12.6244872 C51.4568129,11.9398718 50.9302989,11.5962821 50.9302989,11.5962821 C51.8475349,16.7321795 55.3909356,19.6744872 55.8264946,21.4052564 C57.1805707,18.4142308 58.7127135,10.9924359 55.2846079,8.06807692 C56.0955163,10.7885897 55.3230396,17.5065385 55.3153533,17.3770513" id="Fill-16" fill="#FFFFFF"></path>
                <g id="Group-20" transform="translate(0.000000, 15.598445)">
                    <mask id="mask-2" fill="white">
                        <use xlink:href="#path-1"></use>
                    </mask>
                    <g id="Clip-19"></g>
                    <path d="M6.71529503,1.42347791 C5.49060559,3.20552919 3.84829193,5.7657856 3.48190994,9.06706765 C2.3878882,6.01706765 1.45015528,5.69270867 0.657181677,0.192708674 C-1.52958075,6.23629842 2.23159938,10.6773241 4.73990683,13.6734779 C4.73990683,8.71193944 6.71529503,7.38117021 6.71529503,1.42347791" id="Fill-18" fill="#FFFFFF" mask="url(#mask-2)"></path>
                </g>
                <path d="M7.99878494,11.595641 C7.99878494,11.595641 7.47355202,11.9392308 6.83686724,12.6238462 C5.12665761,14.4674359 4.75002717,15.0994872 3.61373059,17.3764103 C3.60604425,17.5071795 2.8348486,10.7892308 3.64447593,8.06871795 C0.216370342,10.9917949 1.7485132,18.4135897 3.10258929,21.4058974 C3.53814829,19.6751282 7.08154891,16.7315385 7.99878494,11.595641" id="Fill-21" fill="#FFFFFF"></path>
                <path d="M8.90141693,36.2571795 C7.48841227,33.4738462 8.05720109,26.9020513 6.8453222,23.4097436 C6.45972438,25.9841026 5.3234278,29.2507692 5.85378494,31.8058974 C3.96422748,30.2071795 2.14256599,28.5623077 0.0762228261,24.0417949 C1.07288432,33.0969231 5.09027562,33.1802564 8.90141693,36.2571795" id="Fill-23" fill="#FFFFFF"></path>
                <path d="M21.721712,42.6457692 C17.7555629,41.2880769 15.8288548,38.0303846 12.8452756,35.6919231 C13.7163936,38.0765385 15.0269138,41.6508974 18.4793595,42.0816667 C14.7732648,41.7175641 8.9009045,41.8944872 6.64880823,39.4508974 C8.3257104,44.1470513 15.4727213,45.2021795 21.721712,42.6457692" id="Fill-25" fill="#FFFFFF"></path>
                <g id="Group-29" transform="translate(11.529503, 42.438084)">
                    <mask id="mask-4" fill="white">
                        <use xlink:href="#path-3"></use>
                    </mask>
                    <g id="Clip-28"></g>
                    <path d="M21.2224845,0.0197360483 C20.798455,0.0223001508 19.5699224,0.179992459 19.1407686,0.297941176 C18.6206599,0.44153092 18.2299379,0.562043741 17.935295,0.656915535 C17.6406522,0.562043741 17.2486491,0.44153092 16.7285404,0.297941176 C16.3006677,0.179992459 15.070854,0.0223001508 14.6468245,0.0197360483 C9.50979037,-0.0148793363 5.19775621,4.95306938 0.00051242236,1.89922323 C0.912624224,3.50691554 3.66177019,4.71717195 5.82291149,4.71717195 C9.9184472,4.71717195 12.5574224,1.03255656 15.5128183,1.03255656 C15.96375,1.03255656 16.3890606,1.08127451 16.7682531,1.14922323 C14.2099845,2.51588989 12.4715916,4.25563348 10.7139829,6.03896682 L10.7127019,6.03896682 C10.5589752,6.19281297 10.5589752,6.44281297 10.7127019,6.59665913 C10.8664286,6.75050528 11.1175155,6.75050528 11.2712422,6.59665913 C13.2991537,4.88640271 14.9325,2.78255656 17.5099845,1.62230015 C17.5099845,1.62230015 17.6649922,1.54922323 17.935295,1.45563348 C18.2055978,1.54922323 18.3606056,1.62230015 18.3606056,1.62230015 C20.936809,2.78255656 22.5701553,4.88640271 24.5993478,6.59665913 C24.7530745,6.75050528 25.0028804,6.75050528 25.1566071,6.59665913 C25.3116149,6.44281297 25.3116149,6.19281297 25.1566071,6.03896682 L25.1553261,6.03896682 C23.3977174,4.25563348 21.6606056,2.51588989 19.1010559,1.14922323 C19.4802484,1.08127451 19.9081211,1.03255656 20.3577717,1.03255656 C23.3131677,1.03255656 25.9508618,4.71717195 30.0476786,4.71717195 C32.2075388,4.71717195 34.9566848,3.50691554 35.8687966,1.89922323 C30.6715528,4.95306938 26.3607997,-0.0148793363 21.2224845,0.0197360483" id="Fill-27" fill="#FFFFFF" mask="url(#mask-4)"></path>
                </g>
                <path d="M8.56078416,29.6780769 C8.84517857,32.0319231 9.68298913,36.8357692 11.6199457,38.9767949 L11.3253028,38.6819231 C8.32506988,37.0011538 6.19851708,37.2729487 2.35663043,32.3357692 C3.23415373,37.7229487 8.41218168,40.0024359 14.3473137,40.9537179 C12.2835326,39.1421795 12.0580668,34.0755128 8.56078416,29.6780769" id="Fill-30" fill="#FFFFFF"></path>
                <path d="M46.0838082,35.6920513 C43.100229,38.0305128 41.1722399,41.2882051 37.2073719,42.6458974 C43.4563626,45.2010256 50.6046545,44.1471795 52.2802756,39.4510256 C50.0268983,41.8933333 44.1558191,41.7176923 40.4497244,42.0817949 C43.90217,41.6497436 45.2126902,38.0766667 46.0838082,35.6920513" id="Fill-32" fill="#FFFFFF"></path>
            </g>
        </g>
    </g>
</svg>