<?xml version="1.0" encoding="UTF-8" standalone="no"?>
<svg width="16px" height="12px" viewBox="0 0 16 12" version="1.1" xmlns="http://www.w3.org/2000/svg" xmlns:xlink="http://www.w3.org/1999/xlink">
    <!-- Generator: Sketch 3.7.2 (28276) - http://www.bohemiancoding.com/sketch -->
    <title>TwitterLogo_white</title>
    <desc>Created with Sketch.</desc>
    <defs>
        <polygon id="path-1" points="0.00350364964 11.9967713 15.9643796 11.9967713 15.9643796 0.0442331839 0.00350364964 0.0442331839"></polygon>
    </defs>
    <g id="Social-Icons" stroke="none" stroke-width="1" fill="none" fill-rule="evenodd">
        <g id="Twitter" transform="translate(-2.000000, -4.000000)">
            <g id="TwitterLogo_white" transform="translate(2.000000, 4.000000)">
                <mask id="mask-2" fill="white">
                    <use xlink:href="#path-1"></use>
                </mask>
                <g id="Clip-2"></g>
                <path d="M15.9643796,1.45953363 C15.3769927,1.69958744 14.7457518,1.8618296 14.0832117,1.93479821 C14.7594745,1.56123767 15.2787737,0.96973991 15.5233285,0.26496861 C14.8905109,0.610816143 14.1895474,0.862008969 13.4435036,0.997399103 C12.8460146,0.410798206 11.9948029,0.0442331839 11.0527883,0.0442331839 C9.24391241,0.0442331839 7.77740146,1.39560538 7.77740146,3.06242152 C7.77740146,3.29897758 7.80642336,3.52934529 7.86224818,3.75024215 C5.14014599,3.62437668 2.72677372,2.42276233 1.11135766,0.596717489 C0.829430657,1.04249327 0.667912409,1.56096861 0.667912409,2.11409865 C0.667912409,3.16121973 1.24618978,4.0850583 2.1250219,4.62629596 C1.58808759,4.61063677 1.08309489,4.47486996 0.641459854,4.24880717 C0.641226277,4.2613991 0.641226277,4.27404484 0.641226277,4.28674439 C0.641226277,5.74913004 1.77021898,6.96904036 3.26855474,7.24627803 C2.99369343,7.31526457 2.70435036,7.35212556 2.40560584,7.35212556 C2.19456934,7.35212556 1.98937226,7.33323767 1.78943066,7.29799103 C2.20618978,8.49713004 3.41576642,9.36973991 4.8489927,9.39411659 C3.72805839,10.2036054 2.31579562,10.6861345 0.781313869,10.6861345 C0.516963504,10.6861345 0.256233577,10.6718744 0,10.644 C1.44945985,11.5003587 3.17109489,12 5.02072993,12 C11.0451387,12 14.3395036,7.40087892 14.3395036,3.41241256 C14.3395036,3.2815426 14.3363504,3.1513722 14.3300438,3.02195516 C14.969927,2.59641256 15.5252555,2.06480717 15.9643796,1.45953363" id="Fill-1" fill="#FFFFFF" mask="url(#mask-2)"></path>
            </g>
        </g>
    </g>
</svg>