<?xml version="1.0" encoding="UTF-8" standalone="no"?>
<svg width="39px" height="39px" viewBox="0 0 39 39" version="1.1" xmlns="http://www.w3.org/2000/svg" xmlns:xlink="http://www.w3.org/1999/xlink">
    <!-- Generator: Sketch 3.7.2 (28276) - http://www.bohemiancoding.com/sketch -->
    <title>Page 1</title>
    <desc>Created with Sketch.</desc>
    <defs></defs>
    <g id="Loader" stroke="none" stroke-width="1" fill="none" fill-rule="evenodd">
        <g id="CenterSep" transform="translate(-13.000000, -9.000000)">
            <g id="Page-1" transform="translate(13.000000, 9.000000)">
                <path d="M19.5,0 C8.7308,0 0,8.7308 0,19.5 C0,30.2692 8.7308,39 19.5,39 C30.2692,39 39,30.2692 39,19.5 C39,8.7308 30.2692,0 19.5,0 M19.5,2.6 C28.8184,2.6 36.4,10.1816 36.4,19.5 C36.4,28.8184 28.8184,36.4 19.5,36.4 C10.1816,36.4 2.6,28.8184 2.6,19.5 C2.6,10.1816 10.1816,2.6 19.5,2.6" id="Fill-1" fill="#FFFFFF"></path>
                <path d="M19.5,5.2 C11.6025,5.2 5.2,11.6025 5.2,19.5 C5.2,27.3975 11.6025,33.8 19.5,33.8 C27.3975,33.8 33.8,27.3975 33.8,19.5 C33.8,11.6025 27.3975,5.2 19.5,5.2 M19.5,6.5 C26.6682,6.5 32.5,12.3318 32.5,19.5 C32.5,26.6682 26.6682,32.5 19.5,32.5 C12.3318,32.5 6.5,26.6682 6.5,19.5 C6.5,12.3318 12.3318,6.5 19.5,6.5" id="Fill-3" fill="#FFFFFF"></path>
                <path d="M19.5,9.75 C14.1154,9.75 9.75,14.1154 9.75,19.5 C9.75,24.8846 14.1154,29.25 19.5,29.25 C24.8846,29.25 29.25,24.8846 29.25,19.5 C29.25,14.1154 24.8846,9.75 19.5,9.75 M19.5,11.05 C24.1592,11.05 27.95,14.8408 27.95,19.5 C27.95,24.1592 24.1592,27.95 19.5,27.95 C14.8408,27.95 11.05,24.1592 11.05,19.5 C11.05,14.8408 14.8408,11.05 19.5,11.05" id="Fill-5" fill="#FFFFFF"></path>
                <path d="M19.5,14.95 C16.9871,14.95 14.95,16.9871 14.95,19.5 C14.95,22.0129 16.9871,24.05 19.5,24.05 C22.0129,24.05 24.05,22.0129 24.05,19.5 C24.05,16.9871 22.0129,14.95 19.5,14.95 M19.5,16.25 C21.2927,16.25 22.75,17.7086 22.75,19.5 C22.75,21.2914 21.2927,22.75 19.5,22.75 C17.7073,22.75 16.25,21.2914 16.25,19.5 C16.25,17.7086 17.7073,16.25 19.5,16.25" id="Fill-7" fill="#FFFFFF"></path>
                <path d="M19.5,1.32691 L19.5,15.57361" id="Stroke-9" stroke="#FFFFFF"></path>
                <path d="M19.5,23.42691 L19.5,37.67361" id="Stroke-11" stroke="#FFFFFF"></path>
                <path d="M1.32691,19.5 L15.57361,19.5" id="Stroke-13" stroke="#FFFFFF"></path>
                <path d="M23.42691,19.5 L37.67361,19.5" id="Stroke-15" stroke="#FFFFFF"></path>
                <path d="M6.64963,32.35037 L16.72333,22.27667" id="Stroke-17" stroke="#FFFFFF"></path>
                <path d="M22.27667,16.72333 L32.35037,6.64963" id="Stroke-19" stroke="#FFFFFF"></path>
                <path d="M32.35037,32.35037 L22.27667,22.27667" id="Stroke-21" stroke="#FFFFFF"></path>
                <path d="M16.7232,16.72333 L6.6495,6.64963" id="Stroke-23" stroke="#FFFFFF"></path>
            </g>
        </g>
    </g>
</svg>